<svg xmlns="http://www.w3.org/2000/svg" xmlns:xlink="http://www.w3.org/1999/xlink" width="708.973" height="591.373" viewBox="0 0 708.973 591.373">
  <defs>
    <linearGradient id="linear-gradient" x1="-0.138" y1="0.474" x2="1.133" y2="0.291" gradientUnits="objectBoundingBox">
      <stop offset="0" stop-color="#e9c018"/>
      <stop offset="1" stop-color="#f9f7ec"/>
    </linearGradient>
  </defs>
  <g id="undraw_new_ideas_jdea" transform="translate(0 0)">
    <path id="Caminho_203" data-name="Caminho 203" d="M881.668,216.681c0,24.614-5.83,44.875-15.943,62.231a124.359,124.359,0,0,1-11.331,16.272C817.218,340.653,748.1,365.54,685.631,405.852c-184.4,118.989-204.372-71.679-196.043-189.171,3.359-47.408,21.821-90.834,51.152-124.084a194.714,194.714,0,0,1,19.911-19.575c33.3-28.358,76.319-45.519,124.98-45.519,83.486,0,154.78,50.355,183.047,121.313a183.258,183.258,0,0,1,12.989,67.865Z" transform="translate(-211.91 -27.503)" fill="url(#linear-gradient)"/>
    <path id="Caminho_204" data-name="Caminho 204" d="M750,88.423,563.344,110.881a194.7,194.7,0,0,1,19.911-19.575Z" transform="translate(-234.511 -45.787)" fill="#fff"/>
    <path id="Caminho_205" data-name="Caminho 205" d="M954.269,385.463a124.339,124.339,0,0,1-11.331,16.272L783.05,382.5Z" transform="translate(-300.455 -134.054)" fill="#fff"/>
    <path id="Caminho_206" data-name="Caminho 206" d="M925.027,213.65,654.05,178.5,918.5,194.138a182.29,182.29,0,0,1,6.523,19.512Z" transform="translate(-261.736 -72.825)" fill="#fff"/>
    <path id="Caminho_207" data-name="Caminho 207" d="M499.711,91.1c0,.483-.014.959-.056,1.428a19.594,19.594,0,1,1-36.868-10.575,18.013,18.013,0,0,1,1.442-2.317A19.588,19.588,0,0,1,499.641,89.5C499.69,90.03,499.711,90.561,499.711,91.1Z" transform="translate(-203.648 -40.709)" fill="#e7f463"/>
    <path id="Caminho_208" data-name="Caminho 208" d="M503.913,98.6c0,.483-.014.959-.056,1.428L474.519,96.5l29.324.5C503.892,97.534,503.913,98.066,503.913,98.6Z" transform="translate(-207.851 -48.213)" fill="#fff"/>
    <path id="Caminho_209" data-name="Caminho 209" d="M493.991,113.615l-27.14,3.268a19.634,19.634,0,0,1-2.071-2.764Z" transform="translate(-204.927 -53.349)" fill="#fff"/>
    <path id="Caminho_210" data-name="Caminho 210" d="M485.986,82.615l-22.227,2.673a18.015,18.015,0,0,1,1.442-2.317Z" transform="translate(-204.621 -44.044)" fill="#fff"/>
    <path id="Caminho_211" data-name="Caminho 211" d="M884.422,591.288c-.226.427-.462.84-.719,1.235A19.594,19.594,0,1,1,856.094,565.9a18.035,18.035,0,0,1,2.36-1.37,19.588,19.588,0,0,1,26.655,25.317C884.906,590.332,884.675,590.811,884.422,591.288Z" transform="translate(-319.803 -188.082)" fill="#e7f463"/>
    <path id="Caminho_212" data-name="Caminho 212" d="M889.538,596.926c-.226.427-.462.84-.719,1.235l-24.261-16.869,25.666,14.191C890.021,595.97,889.791,596.449,889.538,596.926Z" transform="translate(-324.919 -193.72)" fill="#fff"/>
    <path id="Caminho_213" data-name="Caminho 213" d="M873.636,605.724l-25.506-9.836a19.628,19.628,0,0,1-.534-3.413Z" transform="translate(-319.828 -197.076)" fill="#fff"/>
    <path id="Caminho_214" data-name="Caminho 214" d="M880.661,574.823l-20.887-8.058a18,18,0,0,1,2.359-1.37Z" transform="translate(-323.483 -188.948)" fill="#fff"/>
    <path id="Caminho_215" data-name="Caminho 215" d="M1084.141,118.419c.337.346.659.7.957,1.061a19.594,19.594,0,1,1-33.778,18.171,18.013,18.013,0,0,1-.585-2.665,19.588,19.588,0,0,1,32.242-17.661C1083.378,117.667,1083.77,118.033,1084.141,118.419Z" transform="translate(-380.734 -53.016)" fill="#e7f463"/>
    <path id="Caminho_216" data-name="Caminho 216" d="M1088.906,120.486c.337.346.66.7.957,1.061L1066.4,139.506l21.345-20.113C1088.144,119.734,1088.536,120.1,1088.906,120.486Z" transform="translate(-385.5 -55.083)" fill="#fff"/>
    <path id="Caminho_217" data-name="Caminho 217" d="M1092.442,138.039l-17.148,21.289a19.635,19.635,0,0,1-3.413-.533Z" transform="translate(-387.146 -60.68)" fill="#fff"/>
    <path id="Caminho_218" data-name="Caminho 218" d="M1065.465,123.526l-14.046,17.433a18,18,0,0,1-.585-2.665Z" transform="translate(-380.829 -56.324)" fill="#fff"/>
    <path id="Caminho_219" data-name="Caminho 219" d="M570.961,636.956s43,1.792,43,12.543-48.378,0-48.378,0Z" transform="translate(-235.184 -210.427)" fill="#a0616a"/>
    <path id="Caminho_220" data-name="Caminho 220" d="M403.484,774.745l-80.63-5.375-3.584-43-17.918,37.628-78.839-10.751c1.792-68.088,30.46-134.384,32.252-143.344s6.074-45.977,6.074-45.977c7.83-16.61,48.862-18.169,81.025-16.664,13.331.609,25.157,1.756,32.449,2.58,4.82.538,7.669.932,7.669.932,12.847,13.241,21.125,31.285,26.214,51.442C426.545,674.835,403.484,774.745,403.484,774.745Z" transform="translate(-132.213 -183.371)" fill="#ecc837"/>
    <circle id="Elipse_7" data-name="Elipse 7" cx="44.795" cy="44.795" r="44.795" transform="translate(136.888 86.089)" fill="#a0616a"/>
    <path id="Caminho_221" data-name="Caminho 221" d="M294.594,229.879s-12.543,55.545-32.253,71.671,77.047,0,77.047,0-21.5-35.836-5.375-51.962S294.594,229.879,294.594,229.879Z" transform="translate(-143.371 -88.245)" fill="#a0616a"/>
    <path id="Caminho_222" data-name="Caminho 222" d="M374.713,481.513l-29.726,3.3-83.157,9.246s-.394-1.057-1.093-2.974c-6.038-16.467-35.119-96.6-38.326-120.659-3.584-26.877,34.044-59.129,34.044-59.129s35.836-7.167,46.587-7.167S356.8,320.251,356.8,320.251l16.036,144.257L374.211,477Z" transform="translate(-132.109 -110.53)" fill="#3d3d3d"/>
    <path id="Caminho_223" data-name="Caminho 223" d="M446.557,561.655,386.3,526.339s-1.057-3.44-2.849-9.246c-.9-2.9-1.989-6.415-3.225-10.392-6.952-22.326-18.617-59.165-27.97-86.077C337.92,379.413,407.8,494.088,407.8,494.088l3.494,2.706,1.38,12.489c4.82.537,7.669.932,7.669.932C433.189,523.454,441.468,541.5,446.557,561.655Z" transform="translate(-170.572 -142.813)" opacity="0.15"/>
    <path id="Caminho_224" data-name="Caminho 224" d="M369.646,330.015s-17.918,23.293-3.584,64.5,34.044,105.716,34.044,105.716L504.03,561.156l14.334-17.918-96.756-75.255s-3.584-136.176-21.5-141.551S369.646,330.015,369.646,330.015Z" transform="translate(-173.63 -116.709)" fill="#3d3d3d"/>
    <path id="Caminho_225" data-name="Caminho 225" d="M246.836,550.93s25.085,51.962,35.836,46.587-26.877-59.129-26.877-59.129Z" transform="translate(-139.513 -180.842)" fill="#a0616a"/>
    <path id="Caminho_226" data-name="Caminho 226" d="M198.121,352.77l-94.965,78.839s-35.836,25.085,30.461,43,71.671,28.669,71.671,28.669,7.167-23.293,16.126-19.71l-77.047-37.628,62.713-37.628Z" transform="translate(-93.485 -125.13)" fill="#3d3d3d"/>
    <path id="Caminho_227" data-name="Caminho 227" d="M179.24,221.278c4.984-2.468,15.99-7.45,25.365-13.451-.657-19.524,1.747-37.248,8.785-46.643,3.95-8.97,12.246-17.95,18.743-25.022,15.955-17.367,51.236-27.061,57.494-18.384,47.328.934,52.31,38.032,52.31,38.032-.246,15.517-16.374,16.008-30.5,15.443,1.265,10.593-2.106,21.6-11.869,26.482-18.669,9.335-24.27,21.47-14.935,29.871s26.137,30.8,3.734,36.405-25.2,16.8-18.669,21.47-14.935-8.4-14.935-8.4-3.734,22.4-23.337,16.8a11.792,11.792,0,0,1-5.239-3.712c-5.294,5.817-10.017,9.257-13.577,9.276-20.387.108-17.942-22.472-17.942-22.472s-24.2,6.8-16.648,4.063,7.874-14.275-12.189-25.708S167.986,226.851,179.24,221.278Z" transform="translate(-112.772 -53.628)" fill="#1edbc7"/>
    <path id="Caminho_228" data-name="Caminho 228" d="M545.543,311.816l-.325-.043.793,3.014a79.189,79.189,0,0,0,3.254,12.371l23.254,88.4a14.982,14.982,0,0,0,12.2,10.995l47.422,7.336a14.983,14.983,0,0,0,15.5-7.735l45.066-84.176a79.087,79.087,0,0,0,3.855-7.2l1.53-2.858-.239-.031a79.676,79.676,0,1,0-152.309-20.07Z" transform="translate(-228.94 -85.635)" fill="#212121"/>
    <path id="Caminho_229" data-name="Caminho 229" d="M633.277,437.306a16.3,16.3,0,0,1-2.494-.192l-49.57-7.669a16.356,16.356,0,0,1-13.321-12.006l-24.307-92.4a83.319,83.319,0,0,1-3.414-12.987l-.615-4.042a84,84,0,0,1,96.155-93.685l-.215,1.383a82.63,82.63,0,0,0-94.432,93.02l.473,3.024a82.787,82.787,0,0,0,3.385,12.877l24.323,92.453a14.956,14.956,0,0,0,12.181,10.979L631,435.732a14.982,14.982,0,0,0,15.477-7.724l1.234.66a16.391,16.391,0,0,1-14.43,8.638Z" transform="translate(-227.167 -83.281)" fill="#d0cde1"/>
    <rect id="Ret창ngulo_48" data-name="Ret창ngulo 48" width="87.702" height="1.81" transform="translate(388.524 328.627) rotate(-69.885)" fill="#d0cde1"/>
    <rect id="Ret창ngulo_49" data-name="Ret창ngulo 49" width="1.81" height="87.702" transform="translate(367.632 238.73) rotate(-2.516)" fill="#d0cde1"/>
    <path id="Caminho_230" data-name="Caminho 230" d="M639.877,587.456,576.36,577.63a1.81,1.81,0,1,1,.554-3.578l63.517,9.826a1.81,1.81,0,1,1-.554,3.578Z" transform="translate(-237.957 -191.54)" fill="#212121"/>
    <path id="Caminho_231" data-name="Caminho 231" d="M642.2,568.182l-63.517-9.826a1.811,1.811,0,1,1,.554-3.578l63.517,9.826a1.811,1.811,0,0,1-.554,3.578Z" transform="translate(-238.656 -185.755)" fill="#212121"/>
    <path id="Caminho_232" data-name="Caminho 232" d="M644.531,548.91l-63.517-9.827a1.81,1.81,0,1,1,.554-3.578l63.517,9.826a1.81,1.81,0,0,1-.554,3.578Z" transform="translate(-239.354 -179.97)" fill="#212121"/>
    <path id="Caminho_233" data-name="Caminho 233" d="M610.776,596.189c12.6,1.949,23.9-3.493,25.239-12.154l-45.625-7.058C589.05,585.638,598.177,594.24,610.776,596.189Z" transform="translate(-242.589 -192.424)" fill="#212121"/>
    <path id="Caminho_234" data-name="Caminho 234" d="M640.9,349.344c-2.71-.419-4.952-2.561-6.182-4-.4-.471-.8-.959-1.189-1.448-1.432-1.782-2.783-3.465-4.666-4.342-4.155-1.938-9.051.769-13.289,3.674l-1.024-1.493c4.66-3.195,10.094-6.146,15.079-3.822,2.264,1.056,3.813,2.985,5.311,4.849.381.475.762.948,1.153,1.405,1.278,1.493,3.827,3.911,6.559,3.353a8.816,8.816,0,0,0,3.146-1.666,16.856,16.856,0,0,1,2.226-1.4,8.866,8.866,0,0,1,9.733,1.375,17.507,17.507,0,0,1,1.321,1.4,6.415,6.415,0,0,0,2.584,2.123c1.48.473,3.044-.373,4.7-1.266,1.709-.922,3.476-1.876,5.48-1.641.065.008.131.017.2.027,3.566.552,5.21,4.5,6.141,7.439l-1.727.545c-1.264-4-2.8-5.991-4.821-6.212-1.436-.169-2.879.611-4.408,1.435-1.916,1.035-3.9,2.1-6.11,1.4a7.829,7.829,0,0,1-3.4-2.654,15.964,15.964,0,0,0-1.182-1.255,7.114,7.114,0,0,0-7.707-1.089,15.279,15.279,0,0,0-1.985,1.261,10.286,10.286,0,0,1-3.828,1.961,5.954,5.954,0,0,1-2.116.047Z" transform="translate(-249.88 -120.421)" fill="#d0cde1"/>
  </g>
</svg>
